<svg xmlns="http://www.w3.org/2000/svg" width="25" height="27" viewBox="0 0 25 27">
  <path fill="#FFF" d="M22.474,21.8636035 L18.3181429,21.8636035 L18.3181429,17.6590449 C18.3181429,17.1544863 17.9856429,16.8181621 17.487,16.8181621 L15.8246429,16.8181621 L17.3207143,14.8 C17.5700714,14.4636035 17.4869286,13.875 17.1545,13.6227207 C16.8220714,13.3704414 16.2402143,13.4545586 15.9908571,13.7908828 L13.4973571,17.1544863 C13.3311429,17.4067656 13.248,17.7430898 13.4142143,17.9953691 C13.5804286,18.2476484 13.8298571,18.5 14.1623571,18.5 L16.6558571,18.5 L16.6558571,21.8636035 L8.34414286,21.8636035 L8.34414286,15.1363242 L11.6687857,15.1363242 L10.1727143,17.1544863 C9.92335714,17.4908828 10.0065,18.0794863 10.3389286,18.3317656 C10.6713571,18.5840449 11.2532143,18.4999277 11.5025714,18.1636035 L13.9960714,14.8 C14.1622857,14.5477207 14.2454286,14.2113965 14.0792143,13.9591172 C13.913,13.7068379 13.6636429,13.4545586 13.3311429,13.4545586 L7.51292857,13.4545586 C7.01421429,13.4545586 6.68178571,13.7909551 6.68178571,14.2954414 L6.68178571,21.8636035 C6.18307143,21.8636035 5.85064286,22.2 5.85064286,22.7044863 C5.85064286,23.2089727 6.18314286,23.5453691 6.68178571,23.5453691 L22.474,23.5453691 C22.9727143,23.5453691 23.3051429,23.8817656 23.3051429,24.386252 C23.3051429,24.8908105 22.9726429,25.2271348 22.474,25.2271348 L2.526,25.2271348 C2.02728571,25.2271348 1.69485714,24.8907383 1.69485714,24.386252 C1.69485714,23.8816934 2.02735714,23.5453691 2.526,23.5453691 L3.35714286,23.5453691 C4.18828571,23.5453691 4.18828571,22.7885312 4.18828571,22.1999277 L4.18828571,10.0908828 C4.18828571,5.46588281 7.92857143,1.68176562 12.5,1.68176562 C17.0714286,1.68176562 20.8117143,5.46588281 20.8117143,10.0908828 L20.8117143,19.3408828 C20.8117143,19.8454414 21.1442143,20.1817656 21.6428571,20.1817656 C22.1415,20.1817656 22.474,19.8453691 22.474,19.3408828 L22.474,10.0908828 C22.474,4.54088281 17.9857143,0 12.5,0 C7.01428571,0 2.526,4.54088281 2.526,10.0908828 L2.526,21.8636035 C1.113,21.8636035 0.0325,22.9567656 0.0325,24.3863242 C0.0325,25.8158828 1.113,26.9090449 2.526,26.9090449 L22.4740714,26.9090449 C23.8870714,26.9090449 24.9675714,25.8158828 24.9675714,24.3863242 C24.9675,22.9568379 23.887,21.8636035 22.474,21.8636035 Z"/>
</svg>
