<svg xmlns="http://www.w3.org/2000/svg" width="30" height="32" viewBox="0 0 30 32">
  <path fill="#FFF" d="M29.41532,4.9358 C28.74368,2.4476 23.74466,0 15,0 C6.25534,0 1.25574,2.4476 0.58468,4.9358 C0.53596,5.02106 0.5,5.11444 0.5,5.22 L0.5,5.51 L0.5,12.18 L0.5,12.47 L0.5,12.76 L0.5,19.14 L0.5,19.43 L0.5,19.72 L0.5,26.68 C0.5,26.77396 0.52494,26.8627 0.56786,26.94158 C1.25284,29.78068 7.38112,31.9 15,31.9 C22.60148,31.9 28.7199,29.78938 29.4275,26.96072 C29.4739,26.87778 29.5,26.78208 29.5,26.68 L29.5,19.72 L29.5,19.43 L29.5,19.14 L29.5,12.76 L29.5,12.47 L29.5,12.18 L29.5,5.51 L29.5,5.22 C29.5,5.11444 29.46404,5.02106 29.41532,4.9358 Z M28.29418,19.7113 C28.27794,19.78148 28.25532,19.85108 28.2269,19.92184 C28.2037,19.97926 28.17528,20.03668 28.14396,20.0941 C28.1051,20.16544 28.0616,20.23678 28.00998,20.30812 C27.9717,20.36206 27.9282,20.41542 27.88296,20.46878 C27.81858,20.54476 27.75014,20.62074 27.67242,20.69614 C27.62544,20.74196 27.57382,20.7872 27.52162,20.83302 C27.4265,20.91596 27.32732,20.99832 27.21654,21.0801 C27.16898,21.11548 27.11794,21.1497 27.06748,21.1845 C26.9364,21.27498 26.79952,21.36488 26.6493,21.45304 C26.60986,21.47682 26.56752,21.49944 26.52634,21.52264 C26.3535,21.62008 26.17312,21.71694 25.97824,21.8109 C25.9533,21.82308 25.9272,21.83468 25.90168,21.84628 C25.68418,21.94894 25.45682,22.04986 25.2138,22.1473 C25.20684,22.1502 25.19988,22.15252 25.19292,22.15542 C23.87574,22.68148 22.19084,23.12402 20.22754,23.41402 C20.21768,23.41518 20.20782,23.41634 20.19796,23.41808 C19.81632,23.47434 19.42482,23.52422 19.02288,23.5683 C18.95734,23.57526 18.88832,23.5799 18.8222,23.58686 C18.4713,23.6234 18.11634,23.65704 17.75094,23.68372 C17.5839,23.6959 17.40874,23.7017 17.2388,23.71214 C16.96388,23.72838 16.69186,23.74636 16.40998,23.75622 C15.94946,23.77072 15.47966,23.78 15,23.78 C14.52034,23.78 14.05054,23.77072 13.58944,23.75448 C13.30756,23.74462 13.03554,23.72606 12.76062,23.7104 C12.59068,23.70054 12.41552,23.69416 12.24848,23.68198 C11.88308,23.6553 11.52812,23.62166 11.17722,23.58512 C11.1111,23.57816 11.04208,23.57352 10.97654,23.56656 C10.5746,23.52248 10.1831,23.47202 9.80146,23.41634 C9.7916,23.41518 9.78174,23.41402 9.77188,23.41228 C7.80858,23.12228 6.12368,22.67974 4.8065,22.15368 C4.79954,22.15136 4.79258,22.14846 4.78562,22.14556 C4.5426,22.04812 4.31466,21.9472 4.09774,21.84454 C4.0728,21.83236 4.04612,21.82076 4.02118,21.80916 C3.8263,21.7152 3.64592,21.61892 3.47308,21.5209 C3.43248,21.4977 3.38956,21.47508 3.35012,21.4513 C3.1999,21.36314 3.06302,21.27324 2.93194,21.18276 C2.88206,21.14796 2.83044,21.11374 2.78288,21.07836 C2.6721,20.99658 2.57292,20.91422 2.4778,20.83128 C2.42618,20.78604 2.37398,20.7408 2.327,20.6944 C2.24928,20.619 2.18084,20.5436 2.11646,20.46704 C2.07122,20.41368 2.02772,20.36032 1.98944,20.30638 C1.9384,20.23504 1.8949,20.1637 1.85546,20.09236 C1.82414,20.03494 1.7963,19.97752 1.77252,19.9201 C1.7441,19.84992 1.72148,19.77974 1.70524,19.70956 C1.68378,19.61734 1.66,19.52338 1.66,19.43 C1.66,19.36446 1.66754,19.29892 1.67798,19.23396 C1.69248,19.14638 1.68436,19.0588 1.66,18.97586 L1.66,14.66994 C1.67624,14.68502 1.69654,14.69952 1.71336,14.7146 C1.8398,14.82596 1.96856,14.93674 2.11356,15.04346 C4.29842,16.69588 8.66756,17.98 15,17.98 C21.30576,17.98 25.66388,16.70632 27.85802,15.06376 C28.03318,14.93616 28.19094,14.8045 28.33942,14.67052 L28.34,14.66994 L28.34,18.97586 C28.31564,19.0588 28.30752,19.14638 28.32202,19.23396 C28.33304,19.29892 28.34,19.36446 28.34,19.43 C28.34,19.52338 28.31622,19.61734 28.29418,19.7113 Z M28.34,7.70994 L28.34,12.01586 C28.31564,12.0988 28.30752,12.18638 28.32202,12.27396 C28.33304,12.33892 28.34,12.40446 28.34,12.47 C28.34,12.56338 28.31622,12.65734 28.29418,12.7513 C28.27794,12.82148 28.25532,12.89108 28.2269,12.96184 C28.2037,13.01926 28.17528,13.07668 28.14396,13.1341 C28.1051,13.20544 28.0616,13.27678 28.00998,13.34812 C27.9717,13.40206 27.9282,13.45542 27.88296,13.50878 C27.81858,13.58476 27.75014,13.66074 27.67242,13.73614 C27.62544,13.78196 27.57382,13.8272 27.52162,13.87302 C27.4265,13.95596 27.32732,14.03832 27.21654,14.1201 C27.16898,14.15548 27.11794,14.1897 27.06748,14.2245 C26.9364,14.31498 26.79952,14.40488 26.6493,14.49304 C26.60986,14.51682 26.56752,14.53944 26.52634,14.56264 C26.3535,14.66008 26.17312,14.75694 25.97824,14.8509 C25.9533,14.86308 25.9272,14.87468 25.90168,14.88628 C25.68418,14.98894 25.45682,15.08986 25.2138,15.1873 C25.20684,15.1902 25.19988,15.19252 25.19292,15.19542 C23.87574,15.72148 22.19084,16.16402 20.22754,16.45402 C20.21768,16.45518 20.20782,16.45634 20.19796,16.45808 C19.81632,16.51434 19.42482,16.56422 19.02288,16.6083 C18.95734,16.61526 18.88832,16.6199 18.8222,16.62686 C18.4713,16.6634 18.11634,16.69704 17.75094,16.72372 C17.5839,16.7359 17.40874,16.7417 17.2388,16.75214 C16.96388,16.76838 16.69186,16.78636 16.40998,16.79622 C15.94946,16.81072 15.47966,16.82 15,16.82 C14.52034,16.82 14.05054,16.81072 13.58944,16.79448 C13.30756,16.78462 13.03554,16.76606 12.76062,16.7504 C12.59068,16.74054 12.41552,16.73416 12.24848,16.72198 C11.88308,16.6953 11.52812,16.66166 11.17722,16.62512 C11.1111,16.61816 11.04208,16.61352 10.97654,16.60656 C10.5746,16.56248 10.1831,16.51202 9.80146,16.45634 C9.7916,16.45518 9.78174,16.45402 9.77188,16.45228 C7.80858,16.16228 6.12368,15.71974 4.8065,15.19368 C4.79954,15.19136 4.79258,15.18846 4.78562,15.18556 C4.5426,15.08812 4.31466,14.9872 4.09774,14.88454 C4.0728,14.87236 4.04612,14.86076 4.02118,14.84916 C3.8263,14.7552 3.64592,14.65892 3.47308,14.5609 C3.43248,14.5377 3.38956,14.51508 3.35012,14.4913 C3.1999,14.40314 3.06302,14.31324 2.93194,14.22276 C2.88206,14.18796 2.83044,14.15374 2.78288,14.11836 C2.6721,14.03658 2.57292,13.95422 2.4778,13.87128 C2.42618,13.82604 2.37398,13.7808 2.327,13.7344 C2.24928,13.659 2.18084,13.5836 2.11646,13.50704 C2.07122,13.45368 2.02772,13.40032 1.98944,13.34638 C1.9384,13.27504 1.8949,13.2037 1.85546,13.13236 C1.82414,13.07494 1.7963,13.01752 1.77252,12.9601 C1.7441,12.88992 1.72148,12.81974 1.70524,12.74956 C1.68378,12.65734 1.66,12.56338 1.66,12.47 C1.66,12.40446 1.66754,12.33892 1.67798,12.27396 C1.69248,12.18638 1.68436,12.0988 1.66,12.01586 L1.66,7.70994 C1.7296,7.77316 1.80906,7.83522 1.88446,7.89786 C1.92622,7.93266 1.96508,7.96746 2.00916,8.00226 C2.18316,8.13914 2.37108,8.27428 2.57466,8.40594 C2.617,8.4332 2.66456,8.45988 2.70864,8.48714 C2.87916,8.59328 3.05954,8.6971 3.2492,8.79918 C3.31938,8.83688 3.38956,8.874 3.46206,8.91112 C3.67376,9.019 3.8959,9.12398 4.12964,9.22548 C4.16792,9.2423 4.20272,9.2597 4.24158,9.27594 C4.5136,9.39136 4.80244,9.50156 5.10288,9.60828 C5.18582,9.63786 5.27282,9.6657 5.35808,9.6947 C5.59704,9.77532 5.84412,9.85246 6.0999,9.92728 C6.19212,9.95396 6.2826,9.9818 6.37714,10.00732 C6.71644,10.10128 7.06676,10.1906 7.43448,10.27296 C7.48494,10.28456 7.53946,10.29384 7.5905,10.30486 C7.91472,10.37562 8.25112,10.44116 8.5968,10.50264 C8.71396,10.52352 8.83286,10.54324 8.95234,10.56296 C9.2812,10.6169 9.61992,10.6662 9.96734,10.71144 C10.05666,10.72304 10.14192,10.73638 10.2324,10.7474 C10.66392,10.7996 11.11052,10.84426 11.5693,10.88254 C11.6824,10.89182 11.80014,10.89878 11.91498,10.9069 C12.28212,10.93358 12.65738,10.95562 13.04134,10.97302 C13.18112,10.9794 13.32032,10.98578 13.463,10.991 C13.96296,11.00782 14.4722,11.02 15,11.02 C15.5278,11.02 16.03704,11.00782 16.537,10.991 C16.6791,10.98578 16.8183,10.9794 16.95866,10.97302 C17.34262,10.95562 17.71788,10.93358 18.08502,10.9069 C18.19986,10.8982 18.31702,10.89182 18.4307,10.88254 C18.88948,10.84484 19.33608,10.7996 19.7676,10.7474 C19.85808,10.73638 19.94334,10.72304 20.03266,10.71144 C20.38008,10.6662 20.71822,10.6169 21.04766,10.56296 C21.16714,10.54324 21.28604,10.52352 21.4032,10.50264 C21.74888,10.44116 22.08528,10.37562 22.4095,10.30486 C22.46054,10.29384 22.51506,10.28398 22.56552,10.27296 C22.93324,10.1906 23.28356,10.1007 23.62286,10.00732 C23.7174,9.98122 23.80788,9.95396 23.9001,9.92728 C24.15588,9.85246 24.40296,9.77532 24.64192,9.6947 C24.72718,9.6657 24.81418,9.63786 24.89712,9.60828 C25.19756,9.50156 25.48698,9.39136 25.75842,9.27594 C25.79728,9.2597 25.83208,9.2423 25.87036,9.22548 C26.1041,9.1234 26.32624,9.019 26.53794,8.91112 C26.61044,8.874 26.6812,8.83688 26.7508,8.79918 C26.94046,8.69768 27.12084,8.59386 27.29136,8.48714 C27.33544,8.45988 27.383,8.4332 27.42534,8.40594 C27.62892,8.27428 27.81684,8.13972 27.99084,8.00226 C28.03434,7.96746 28.0732,7.93266 28.11554,7.89786 C28.19094,7.83522 28.2704,7.77316 28.34,7.70994 Z M15,1.16 C22.8619,1.16 28.34,3.45216 28.34,5.51 C28.34,7.56784 22.8619,9.86 15,9.86 C7.1381,9.86 1.66,7.56784 1.66,5.51 C1.66,3.45216 7.1381,1.16 15,1.16 Z M28.34,26.50774 C28.33188,26.53326 28.32608,26.55936 28.32144,26.58604 C27.99258,28.59226 22.56088,30.74 15,30.74 C7.43912,30.74 2.00742,28.59226 1.67856,26.58604 C1.67392,26.55994 1.66754,26.53442 1.66,26.51006 L1.66,21.62994 C1.67624,21.64502 1.69654,21.65952 1.71336,21.6746 C1.8398,21.78596 1.96856,21.89674 2.11356,22.00346 C4.29842,23.65588 8.66756,24.94 15,24.94 C21.30576,24.94 25.66388,23.66632 27.85802,22.02376 C28.03318,21.89616 28.19094,21.7645 28.33942,21.63052 L28.34,21.62994 L28.34,26.50774 L28.34,26.50774 Z"/>
</svg>
